<?xml version="1.0"?>
<svg xmlns="http://www.w3.org/2000/svg" id="Capa_1" enable-background="new 0 0 512 512" height="512" viewBox="0 0 512 512" width="512" class=""><g><g fill="rgb(0,0,0)"><path d="m479.004 274.639h-446.008c-19.002 5.267-32.996 22.705-32.996 43.361v106c0 8.284 6.716 15 15 15h50v25c0 8.284 6.716 15 15 15s15-6.716 15-15v-25h322v25c0 8.284 6.716 15 15 15s15-6.716 15-15v-25h50c8.284 0 15-6.716 15-15v-106c0-20.656-13.994-38.094-32.996-43.361z" data-original="#000000" class="active-path" style="fill:#EC4F4F" data-old_color="#000000"/><path d="m384 193h-96c-8.284 0-15 6.716-15 15v36.639h126v-36.639c0-8.284-6.716-15-15-15z" data-original="#000000" class="active-path" style="fill:#EC4F4F" data-old_color="#000000"/><path d="m83 208c0-24.813 20.187-45 45-45h96c12.508 0 23.836 5.134 32 13.4 8.164-8.266 19.492-13.4 32-13.4h96c24.813 0 45 20.187 45 45v36.639h49.715c-5.862-117.602-102.952-211.639-222.715-211.639-119.653 0-216.847 93.916-222.715 211.639h49.715z" data-original="#000000" class="active-path" style="fill:#EC4F4F" data-old_color="#000000"/><path d="m224 193h-96c-8.284 0-15 6.716-15 15v36.639h126v-36.639c0-8.284-6.716-15-15-15z" data-original="#000000" class="active-path" style="fill:#EC4F4F" data-old_color="#000000"/></g></g> </svg>
