<?xml version="1.0"?>
<svg xmlns="http://www.w3.org/2000/svg" xmlns:xlink="http://www.w3.org/1999/xlink" version="1.1" id="Capa_1" x="0px" y="0px" viewBox="0 0 16.361 16.361" style="enable-background:new 0 0 16.361 16.361;" xml:space="preserve" width="512" height="512"><g><g>
	<path style="fill:#8B1481" d="M15.314,1.927c-0.578,0-1.047,0.469-1.047,1.047c0,0.367,0.19,0.688,0.477,0.875v0.986h-3.431   c-0.271-1.524-1.605-2.686-3.207-2.686c-1.601,0-2.935,1.162-3.206,2.686H1.616V3.849C1.902,3.662,2.092,3.34,2.092,2.974   c0-0.578-0.468-1.047-1.046-1.047S0,2.396,0,2.974c0,0.367,0.189,0.688,0.476,0.875v0.986v1.848v4.043v1.74v1.969h1.141v-1.969   h13.127v1.969h1.141v-1.969v-1.74V6.682V4.834V3.849c0.286-0.187,0.476-0.508,0.476-0.875C16.36,2.395,15.891,1.927,15.314,1.927z    M3.55,11.326H1.616v-0.6V6.682V5.976H3.55C3.55,5.976,3.55,11.326,3.55,11.326z M4.692,11.326V5.977h1.3V5.974h0.317v5.351   L4.692,11.326L4.692,11.326z M7.45,11.326V5.974h1.237v5.351L7.45,11.326L7.45,11.326z M11.778,11.326H9.829V5.974h0.393v0.002   h1.557L11.778,11.326L11.778,11.326z M14.744,6.682v4.043v0.6h-1.823V5.976h1.823V6.682z" data-original="#030104" class="active-path" data-old_color="#030104"/>
</g></g> </svg>
