<svg xmlns="http://www.w3.org/2000/svg" height="511pt" version="1.1" viewBox="0 -39 511.99995 511" width="511pt">
<g id="surface1">
<path d="M 184.871094 151.335938 C 126.480469 167.445312 83.597656 220.929688 83.597656 284.4375 C 83.597656 347.945312 126.480469 401.433594 184.871094 417.539062 C 243.257812 401.433594 286.140625 347.945312 286.140625 284.4375 C 286.140625 220.929688 243.257812 167.445312 184.871094 151.335938 Z M 184.871094 151.335938 " style=" stroke:none;fill-rule:nonzero;fill:rgb(100%,77.647059%,42.352941%);fill-opacity:1;" />
<path d="M 315.433594 320.105469 C 296.304688 248.710938 336.785156 175.390625 406.367188 152.980469 C 381.878906 145.042969 354.894531 143.847656 328.175781 151.007812 C 254.523438 170.742188 210.8125 246.449219 230.546875 320.105469 C 250.285156 393.757812 325.988281 437.46875 399.644531 417.734375 C 401.90625 417.128906 404.136719 416.46875 406.339844 415.757812 C 363.320312 401.8125 328.011719 367.039062 315.433594 320.105469 Z M 315.433594 320.105469 " style=" stroke:none;fill-rule:nonzero;fill:rgb(100%,100%,100%);fill-opacity:1;" />
<path d="M 497.273438 248.636719 C 484.695312 201.699219 449.386719 166.929688 406.367188 152.980469 C 336.785156 175.390625 296.304688 248.710938 315.433594 320.105469 C 328.011719 367.039062 363.320312 401.8125 406.339844 415.757812 C 475.921875 393.351562 516.402344 320.027344 497.273438 248.636719 Z M 497.273438 248.636719 " style=" stroke:none;fill-rule:nonzero;fill:rgb(100%,72.54902%,32.941176%);fill-opacity:1;" />
<path d="M 110.902344 258.835938 C 110.902344 256.203125 109.832031 253.621094 107.972656 251.761719 C 106.109375 249.902344 103.539062 248.832031 100.898438 248.832031 C 98.265625 248.832031 95.6875 249.902344 93.824219 251.761719 C 91.964844 253.621094 90.894531 256.203125 90.894531 258.835938 C 90.894531 261.476562 91.964844 264.046875 93.824219 265.917969 C 95.6875 267.78125 98.265625 268.839844 100.898438 268.839844 C 103.53125 268.839844 106.109375 267.78125 107.972656 265.917969 C 109.832031 264.046875 110.902344 261.476562 110.902344 258.835938 Z M 110.902344 258.835938 " style=" stroke:none;fill-rule:nonzero;fill:rgb(0%,0%,0%);fill-opacity:1;" />
<path d="M 195.242188 248.832031 C 192.613281 248.832031 190.03125 249.902344 188.167969 251.761719 C 186.308594 253.621094 185.238281 256.203125 185.238281 258.835938 C 185.238281 261.476562 186.308594 264.046875 188.167969 265.917969 C 190.03125 267.78125 192.613281 268.839844 195.242188 268.839844 C 197.875 268.839844 200.457031 267.78125 202.316406 265.917969 C 204.175781 264.046875 205.25 261.464844 205.25 258.835938 C 205.25 256.203125 204.175781 253.621094 202.316406 251.761719 C 200.457031 249.902344 197.875 248.832031 195.242188 248.832031 Z M 195.242188 248.832031 " style=" stroke:none;fill-rule:nonzero;fill:rgb(0%,0%,0%);fill-opacity:1;" />
<path d="M 183.964844 306.699219 C 178.628906 305.269531 173.144531 308.445312 171.71875 313.78125 C 168.859375 324.484375 159.136719 331.960938 148.074219 331.960938 C 137.007812 331.960938 127.285156 324.484375 124.425781 313.78125 C 123 308.445312 117.515625 305.269531 112.179688 306.699219 C 106.839844 308.125 103.667969 313.609375 105.09375 318.949219 C 110.289062 338.390625 127.960938 351.96875 148.074219 351.96875 C 168.183594 351.96875 185.855469 338.390625 191.050781 318.949219 C 192.476562 313.609375 189.304688 308.125 183.964844 306.699219 Z M 183.964844 306.699219 " style=" stroke:none;fill-rule:nonzero;fill:rgb(0%,0%,0%);fill-opacity:1;" />
<path d="M 256.121094 84.023438 C 261.648438 84.023438 266.125 79.542969 266.125 74.019531 L 266.125 10.503906 C 266.125 4.980469 261.648438 0.5 256.121094 0.5 C 250.59375 0.5 246.117188 4.980469 246.117188 10.503906 L 246.117188 74.019531 C 246.117188 79.542969 250.59375 84.023438 256.121094 84.023438 Z M 256.121094 84.023438 " style=" stroke:none;fill-rule:nonzero;fill:rgb(0%,0%,0%);fill-opacity:1;" />
<path d="M 256.125 99.367188 C 253.484375 99.367188 250.910156 100.429688 249.039062 102.300781 C 247.179688 104.160156 246.121094 106.742188 246.121094 109.375 C 246.121094 112.003906 247.179688 114.585938 249.039062 116.445312 C 250.910156 118.308594 253.484375 119.378906 256.125 119.378906 C 258.753906 119.378906 261.335938 118.308594 263.199219 116.445312 C 265.058594 114.585938 266.128906 112.003906 266.128906 109.375 C 266.128906 106.742188 265.058594 104.160156 263.199219 102.300781 C 261.335938 100.429688 258.753906 99.367188 256.125 99.367188 Z M 256.125 99.367188 " style=" stroke:none;fill-rule:nonzero;fill:rgb(0%,0%,0%);fill-opacity:1;" />
<path d="M 181.007812 105.609375 C 182.960938 107.5625 185.523438 108.539062 188.082031 108.539062 C 190.644531 108.539062 193.207031 107.558594 195.160156 105.605469 C 199.0625 101.695312 199.0625 95.359375 195.152344 91.457031 L 169.609375 65.933594 C 165.703125 62.03125 159.367188 62.03125 155.460938 65.941406 C 151.554688 69.851562 151.558594 76.183594 155.46875 80.089844 Z M 181.007812 105.609375 " style=" stroke:none;fill-rule:nonzero;fill:rgb(0%,0%,0%);fill-opacity:1;" />
<path d="M 322.574219 110.21875 C 325.136719 110.21875 327.695312 109.242188 329.652344 107.289062 L 356.804688 80.109375 C 360.710938 76.199219 360.710938 69.867188 356.800781 65.960938 C 352.890625 62.054688 346.558594 62.058594 342.652344 65.964844 L 315.496094 93.144531 C 311.589844 97.050781 311.59375 103.386719 315.503906 107.292969 C 317.453125 109.246094 320.015625 110.21875 322.574219 110.21875 Z M 322.574219 110.21875 " style=" stroke:none;fill-rule:nonzero;fill:rgb(0%,0%,0%);fill-opacity:1;" />
<path d="M 506.9375 246.042969 C 485.804688 167.179688 404.453125 120.207031 325.585938 141.34375 C 298.519531 148.59375 274.605469 163.015625 255.929688 182.984375 C 227.980469 153.222656 189.304688 136.367188 148.074219 136.367188 C 66.425781 136.367188 0 202.789062 0 284.4375 C 0 366.085938 66.425781 432.511719 148.074219 432.511719 C 189.34375 432.511719 228.082031 415.601562 256.039062 385.765625 C 283.71875 415.117188 322.757812 432.457031 363.945312 432.457031 C 376.59375 432.457031 389.449219 430.820312 402.234375 427.394531 C 481.101562 406.265625 528.070312 324.910156 506.9375 246.042969 Z M 148.074219 412.5 C 77.457031 412.5 20.011719 355.050781 20.011719 284.4375 C 20.011719 213.824219 77.457031 156.375 148.074219 156.375 C 184.628906 156.375 218.863281 171.695312 243.160156 198.65625 C 240.507812 202.410156 238.003906 206.300781 235.675781 210.332031 C 215.902344 244.585938 210.648438 284.488281 220.886719 322.691406 C 225.582031 340.226562 233.257812 356.179688 243.214844 370.160156 C 218.914062 397.160156 184.640625 412.5 148.074219 412.5 Z M 397.054688 408.070312 C 328.847656 426.339844 258.488281 385.722656 240.210938 317.515625 C 231.359375 284.472656 235.902344 249.960938 253.003906 220.339844 C 256.160156 214.871094 259.675781 209.695312 263.515625 204.828125 C 263.683594 204.636719 263.835938 204.441406 263.984375 204.238281 C 280.917969 183.035156 304.066406 167.824219 330.765625 160.671875 C 341.828125 157.707031 352.9375 156.292969 363.882812 156.292969 C 420.417969 156.292969 472.296875 194.078125 487.609375 251.222656 C 505.886719 319.433594 465.261719 389.792969 397.054688 408.070312 Z M 397.054688 408.070312 " style=" stroke:none;fill-rule:nonzero;fill:rgb(0%,0%,0%);fill-opacity:1;" />
<path d="M 334.605469 264.753906 C 331.507812 253.195312 319.589844 246.308594 308.027344 249.410156 C 296.472656 252.507812 289.585938 264.429688 292.683594 275.984375 C 293.882812 280.457031 297.925781 283.402344 302.34375 283.402344 C 303.199219 283.402344 304.070312 283.292969 304.9375 283.058594 C 310.277344 281.628906 313.441406 276.144531 312.011719 270.808594 C 311.769531 269.90625 312.308594 268.976562 313.207031 268.734375 C 313.765625 268.585938 314.214844 268.746094 314.488281 268.90625 C 314.765625 269.066406 315.128906 269.375 315.277344 269.929688 C 316.707031 275.269531 322.191406 278.4375 327.53125 277.007812 C 332.867188 275.578125 336.035156 270.089844 334.605469 264.753906 Z M 334.605469 264.753906 " style=" stroke:none;fill-rule:nonzero;fill:rgb(0%,0%,0%);fill-opacity:1;" />
<path d="M 415.058594 227.3125 C 410.039062 224.414062 404.1875 223.644531 398.589844 225.144531 C 392.992188 226.644531 388.3125 230.234375 385.414062 235.253906 C 382.515625 240.273438 381.746094 246.121094 383.246094 251.71875 C 384.445312 256.191406 388.488281 259.136719 392.90625 259.136719 C 393.761719 259.136719 394.632812 259.027344 395.5 258.792969 C 400.835938 257.363281 404.003906 251.878906 402.574219 246.539062 C 402.425781 245.980469 402.585938 245.535156 402.746094 245.257812 C 402.90625 244.980469 403.210938 244.621094 403.769531 244.472656 C 404.328125 244.320312 404.777344 244.480469 405.054688 244.640625 C 405.328125 244.800781 405.691406 245.105469 405.839844 245.664062 C 407.269531 251.003906 412.753906 254.171875 418.09375 252.738281 C 423.433594 251.308594 426.597656 245.824219 425.167969 240.488281 C 423.667969 234.886719 420.078125 230.210938 415.058594 227.3125 Z M 415.058594 227.3125 " style=" stroke:none;fill-rule:nonzero;fill:rgb(0%,0%,0%);fill-opacity:1;" />
<path d="M 404.148438 296.191406 C 398.8125 297.621094 395.644531 303.105469 397.074219 308.441406 C 400.480469 321.148438 392.914062 334.253906 380.207031 337.660156 C 374.050781 339.308594 367.625 338.460938 362.105469 335.277344 C 356.589844 332.089844 352.640625 326.945312 350.992188 320.792969 C 349.5625 315.453125 344.074219 312.285156 338.738281 313.71875 C 333.402344 315.148438 330.234375 320.632812 331.664062 325.96875 C 334.695312 337.289062 341.953125 346.746094 352.101562 352.605469 C 358.859375 356.507812 366.363281 358.5 373.960938 358.5 C 377.773438 358.5 381.609375 358 385.386719 356.988281 C 408.75 350.726562 422.664062 326.625 416.40625 303.265625 C 414.972656 297.929688 409.488281 294.757812 404.148438 296.191406 Z M 404.148438 296.191406 " style=" stroke:none;fill-rule:nonzero;fill:rgb(0%,0%,0%);fill-opacity:1;" />
</g>
</svg>