<?xml version="1.0"?>
<svg xmlns="http://www.w3.org/2000/svg" id="Capa_1" enable-background="new 0 0 512 512" height="512" viewBox="0 0 512 512" width="512" class="hovered-paths"><g><g><g><g clip-rule="evenodd" fill-rule="evenodd"><path d="m69 337.75h374c8.249 0 15-6.75 15-15v-40.5c25.681 0 46.5-20.819 46.5-46.5s-20.819-46.5-46.5-46.5-46.5 20.819-46.5 46.5v45c0 8.25-6.75 15-15 15h-140.5-140.5c-8.25 0-15-6.75-15-15v-45c0-25.681-20.819-46.5-46.5-46.5s-46.5 20.819-46.5 46.5 20.819 46.5 46.5 46.5v40.501c0 8.249 6.751 14.999 15 14.999z" fill="#f0c6d0" data-original="#F0C6D0"/><path d="m115.5 295.75h140.5v-45c0-8.25-6.75-15-15-15h-140.5v45c0 8.25 6.75 15 15 15z" fill="#f0c6d0" data-original="#F0C6D0"/><path d="m256 295.75h140.5c8.25 0 15-6.75 15-15v-45h-140.5c-8.25 0-15 6.75-15 15z" fill="#f0c6d0" data-original="#F0C6D0"/><path d="m100.5 235.75h140.5c8.25 0 15 6.75 15 15 0-8.25 6.75-15 15-15h140.5c0-25.681 20.819-46.5 46.5-46.5l-7.5-60c-1.023-8.186-6.752-15-15-15h-359c-8.248 0-13.977 6.817-15 15l-7.5 60c25.681 0 46.5 20.819 46.5 46.5z" fill="#f0c6d0" data-original="#F0C6D0"/><path d="m69 337.75h374v30h-374z" fill="#f0d5b3" data-original="#F0D5B3"/><path d="m398.001 397.749h30v-30h-37.5zm-314.001 0h30l7.5-30h-37.5z" fill="#f0d5b3" data-original="#F0D5B3"/><path d="m98.999 114.251h-22.499c-8.248 0-13.977 6.817-15 15l-7.5 60c7.911 0 15.359 1.978 21.88 5.462l8.12-65.463c1.022-8.182 6.751-14.999 14.999-14.999z" fill="#e08ea2" data-original="#E08EA2"/><path d="m115.5 295.75h22.5c-8.25 0-15-6.75-15-15v-45h-22.5v45c0 8.25 6.75 15 15 15zm140.5 0h22.5v-45c0-8.25 6.75-15 15-15h-22.5c-8.25 0-15 6.75-15 15z" fill="#e08ea2" data-original="#E08EA2"/><path d="m69 337.75h22.5c-8.249 0-15-6.75-15-15v-63h-22.5v16.7c-14.31-7.928-24-23.181-24-40.7 0-21.801 15.005-40.096 35.25-45.126-3.603-.895-7.37-1.373-11.25-1.373-25.681 0-46.5 20.819-46.5 46.5s20.819 46.5 46.5 46.5v40.501c0 8.248 6.751 14.998 15 14.998zm327.5-42v7.5h22.5c8.25 0 15-6.75 15-15v-52.5c0-21.801 15.005-40.096 35.25-45.126-3.602-.895-7.37-1.373-11.25-1.373-25.681 0-46.5 20.819-46.5 46.5v45c0 7.551-6.226 14.999-15 14.999z" fill="#e08ea2" data-original="#E08EA2"/><path d="m69 337.75h22.5v30h-22.5z" fill="#e8bc85" data-original="#E8BC85"/><path d="m84 397.749h22.5v-30h-22.5zm314.001 0h22.5l-7.5-30h-22.5z" fill="#e8bc85" data-original="#E8BC85"/></g><g><path d="m389.001 273.25h-15v-15h15zm-155.5 0h-15v-15h15zm231.999-28.5h-15v-15h15zm-404 0h-15v-15h15zm366.501-93h-15v-15h15z" fill="#fff" data-original="#FFF"/></g></g><g><path d="m512 235.75c0-27.514-20.69-50.272-47.325-53.573l-6.732-53.858c-1.563-12.497-11.001-21.568-22.442-21.568h-172v15h172c4.493 0 7.033 4.233 7.558 8.43l6.529 52.229c-25.795 4.053-45.588 26.427-45.588 53.34v45c0 4.136-3.364 7.5-7.5 7.5h-281c-4.136 0-7.5-3.364-7.5-7.5v-45c0-26.913-19.793-49.287-45.586-53.341l6.529-52.23c.524-4.195 3.064-8.429 7.558-8.429h172v-15h-172c-11.442 0-20.88 9.071-22.442 21.568l-6.732 53.858c-26.637 3.302-47.327 26.06-47.327 53.574 0 27.23 20.263 49.804 46.5 53.468v33.532c0 12.406 10.094 22.5 22.5 22.5h179.5v-15h-179.5c-4.136 0-7.5-3.364-7.5-7.5v-63h-15v14.269c-17.928-3.507-31.5-19.33-31.5-38.269 0-21.505 17.495-39 39-39s39 17.495 39 39v45c0 12.406 10.094 22.5 22.5 22.5h281c12.406 0 22.5-10.094 22.5-22.5v-45c0-21.505 17.495-39 39-39s39 17.495 39 39c0 18.939-13.572 34.762-31.5 38.269v-14.269h-15v63c0 4.136-3.364 7.5-7.5 7.5h-179.5v15h179.5c12.406 0 22.5-10.094 22.5-22.5v-33.532c26.237-3.664 46.5-26.238 46.5-53.468z" data-original="#000000" class="hovered-path active-path" style="fill:#000000"/><path d="m61.5 375.25h15v29.999h43.354l7.5-29.999h257.29l7.5 29.999h43.356v-29.999h15v-15h-389zm46.644 14.999h-16.644v-14.999h20.393zm312.356 0h-16.644l-3.75-14.999h20.394z" data-original="#000000" class="hovered-path active-path" style="fill:#000000"/><path d="m256 233.998c-3.984-3.571-9.242-5.748-15-5.748h-118v15h118c4.136 0 7.5 3.364 7.5 7.5v22.5h15v-22.5c0-4.136 3.364-7.5 7.5-7.5h118v-15h-118c-5.758 0-11.016 2.177-15 5.748z" data-original="#000000" class="hovered-path active-path" style="fill:#000000"/><path d="m313.194 152.501h15v15h-15z" data-original="#000000" class="hovered-path active-path" style="fill:#000000"/><path d="m253.194 152.501h15.001v15h-15.001z" data-original="#000000" class="hovered-path active-path" style="fill:#000000"/><path d="m283.195 182.5h15v15h-15z" data-original="#000000" class="hovered-path active-path" style="fill:#000000"/><path d="m343.194 182.5h15.001v15h-15.001z" data-original="#000000" class="hovered-path active-path" style="fill:#000000"/><path d="m193.195 152.501h15v15h-15z" data-original="#000000" class="hovered-path active-path" style="fill:#000000"/><path d="m373.194 152.501h15v15h-15z" data-original="#000000" class="hovered-path active-path" style="fill:#000000"/><path d="m223.195 182.5h15v15h-15z" data-original="#000000" class="hovered-path active-path" style="fill:#000000"/><path d="m163.195 182.5h15v15h-15z" data-original="#000000" class="hovered-path active-path" style="fill:#000000"/><path d="m133.195 152.501h15v15h-15z" data-original="#000000" class="hovered-path active-path" style="fill:#000000"/></g></g></g> </svg>
