<?xml version="1.0"?>
<svg xmlns="http://www.w3.org/2000/svg" id="Capa_1" enable-background="new 0 0 512 512" height="512" viewBox="0 0 512 512" width="512"><g><g><path d="m334.179 225.378c29.728 0 54.392-21.625 59.155-50h-274.668c4.763 28.375 29.426 50 59.155 50h48.179v171.244h-82.793c-8.284 0-15 6.716-15 15s6.716 15 15 15h225.586c8.284 0 15-6.716 15-15s-6.716-15-15-15h-82.793v-171.244z" data-original="#000000" class="active-path" style="fill:#E17612" data-old_color="#000000"/><path d="m497 85.378h-482c-8.284 0-15 6.716-15 15v30c0 8.284 6.716 15 15 15h482c8.284 0 15-6.716 15-15v-30c0-8.284-6.716-15-15-15z" data-original="#000000" class="active-path" style="fill:#E17612" data-old_color="#000000"/></g></g> </svg>
