<?xml version="1.0"?>
<svg xmlns="http://www.w3.org/2000/svg" id="Capa_1" enable-background="new 0 0 512 512" height="512" viewBox="0 0 512 512" width="512" class=""><g><g><g id="XMLID_1_"><g><path d="m511.5 299.91v183.65c0 8.26-6.7 14.97-14.97 14.97s-14.97-6.71-14.97-14.97v-8.99h-210.59v-189.63h76.64l-33.94-33.93h-115.34l-33.94 33.93h76.64v79.85h-240.53v-64.88c0-8.26 6.7-14.97 14.97-14.97h106.58l33.93-33.93h-91.61c-8.26 0-14.97-6.7-14.97-14.97v-207.6c0-8.26 6.71-14.97 14.97-14.97h383.26c8.26 0 14.97 6.71 14.97 14.97v207.6c0 8.27-6.71 14.97-14.97 14.97h-91.61l33.93 33.93h106.58c8.27 0 14.97 6.71 14.97 14.97zm-168.67 63.88c0-8.27-6.7-14.97-14.97-14.97s-14.97 6.7-14.97 14.97 6.7 14.97 14.97 14.97 14.97-6.7 14.97-14.97z" data-original="#000000" class="active-path" style="fill:#5F7D95" data-old_color="#000000"/><path d="m241.03 394.73v79.84h-210.59v8.99c0 8.26-6.7 14.97-14.97 14.97s-14.97-6.71-14.97-14.97v-88.83z" data-original="#000000" class="active-path" style="fill:#5F7D95" data-old_color="#000000"/></g><g fill="none" stroke="rgb(0,0,0)" stroke-miterlimit="9.981" stroke-width=".998"><path d="m496.53 284.94h-106.58l-33.93-33.93h91.61c8.26 0 14.97-6.7 14.97-14.97v-207.6c0-8.26-6.71-14.97-14.97-14.97h-383.26c-8.26 0-14.97 6.71-14.97 14.97v207.6c0 8.27 6.71 14.97 14.97 14.97h91.61l-33.93 33.93h-106.58c-8.27 0-14.97 6.71-14.97 14.97v64.88h240.53v-79.85h-76.64l33.94-33.93h115.34l33.94 33.93h-76.64v189.63h210.59v8.99c0 8.26 6.7 14.97 14.97 14.97s14.97-6.71 14.97-14.97v-183.65c0-8.26-6.7-14.97-14.97-14.97z" class="active-path" style=""/><circle cx="327.86" cy="363.79" r="14.97" class="active-path"/></g></g></g></g> </svg>
